<svg width="39" height="46" viewBox="0 0 39 46" fill="none" xmlns="http://www.w3.org/2000/svg">
<path d="M0.28 46H38.232V36.08H20.312L30.744 26.736C32.664 25.072 34.2213 23.2373 35.416 21.232C36.6107 19.184 37.208 16.944 37.208 14.512C37.208 12.8053 36.8453 11.12 36.12 9.456C35.3947 7.792 34.3067 6.27733 32.856 4.912C31.448 3.504 29.6773 2.39467 27.544 1.584C25.4107 0.730665 22.9573 0.303997 20.184 0.303997C16.344 0.303997 13.08 1.09333 10.392 2.672C7.74667 4.25066 5.76267 6.36266 4.44 9.008C3.11733 11.6533 2.456 14.576 2.456 17.776H13.08C13.08 16.1547 13.336 14.7253 13.848 13.488C14.4027 12.2507 15.192 11.2907 16.216 10.608C17.2827 9.92533 18.4987 9.584 19.864 9.584C20.888 9.584 21.784 9.75467 22.552 10.096C23.32 10.3947 23.96 10.8213 24.472 11.376C24.984 11.888 25.368 12.4853 25.624 13.168C25.88 13.8507 26.008 14.5333 26.008 15.216C26.008 16.4107 25.7733 17.5413 25.304 18.608C24.8773 19.632 24.216 20.6773 23.32 21.744C22.4667 22.8107 21.4427 24.0053 20.248 25.328L0.28 46Z" fill="#FBFBFF"/>
</svg>
