<svg width="35" height="48" viewBox="0 0 35 48" fill="none" xmlns="http://www.w3.org/2000/svg">
<path d="M14.6 24.304C18.1413 24.304 21.3413 23.8773 24.2 23.024C27.0587 22.1707 29.32 20.8907 30.984 19.184C32.6907 17.4773 33.544 15.344 33.544 12.784C33.544 10.48 32.9253 8.38933 31.688 6.512C30.4933 4.63467 28.7227 3.14133 26.376 2.032C24.0293 0.922663 21.1707 0.367996 17.8 0.367996C14.6427 0.367996 11.8693 0.986664 9.48 2.224C7.09067 3.41867 5.23467 5.08267 3.912 7.216C2.632 9.30666 1.992 11.6747 1.992 14.32H11.912C11.912 12.7413 12.4667 11.4613 13.576 10.48C14.6853 9.49867 16.0933 9.008 17.8 9.008C18.952 9.008 19.8907 9.2 20.616 9.584C21.3413 9.92533 21.896 10.4373 22.28 11.12C22.664 11.8027 22.856 12.5707 22.856 13.424C22.856 14.2347 22.664 15.0027 22.28 15.728C21.896 16.4533 21.32 17.0933 20.552 17.648C19.8267 18.2027 18.952 18.6507 17.928 18.992C16.9467 19.2907 15.8373 19.44 14.6 19.44V24.304ZM17.288 47.024C20.9573 47.024 24.0933 46.4693 26.696 45.36C29.2987 44.208 31.304 42.6507 32.712 40.688C34.12 38.6827 34.824 36.3787 34.824 33.776C34.824 31.5147 34.3333 29.5733 33.352 27.952C32.3707 26.3307 30.9627 25.008 29.128 23.984C27.2933 22.9173 25.1387 22.1493 22.664 21.68C20.232 21.168 17.544 20.912 14.6 20.912V26.416C16.2213 26.416 17.6293 26.5653 18.824 26.864C20.0187 27.1627 21 27.6107 21.768 28.208C22.5787 28.7627 23.176 29.424 23.56 30.192C23.944 30.96 24.136 31.8133 24.136 32.752C24.136 33.9893 23.8587 35.0347 23.304 35.888C22.7493 36.7413 21.9813 37.36 21 37.744C20.0613 38.128 18.952 38.32 17.672 38.32C16.4773 38.32 15.3253 38.0853 14.216 37.616C13.1493 37.1467 12.296 36.4213 11.656 35.44C11.016 34.4587 10.696 33.2427 10.696 31.792H0.072C0.072 33.7547 0.456 35.6533 1.224 37.488C2.03467 39.3227 3.16533 40.9653 4.616 42.416C6.10933 43.8667 7.92267 44.9973 10.056 45.808C12.1893 46.6187 14.6 47.024 17.288 47.024Z" fill="#FBFBFF"/>
</svg>
