<svg width="92" height="92" viewBox="0 0 92 92" fill="none" xmlns="http://www.w3.org/2000/svg">
<path d="M72.5 0H19.1667C8.75 0 0 8.75 0 19.1667V87.5C0 89.1667 0.833333 90.4167 2.08333 91.25C2.91667 91.6667 3.33333 91.6667 4.16667 91.6667C5 91.6667 5.83333 91.25 6.66667 90.8333L27.0833 76.25C30.4167 74.1667 34.1667 72.9167 37.9167 72.9167H72.5C83.3333 72.9167 91.6667 64.1667 91.6667 53.75V19.1667C91.6667 8.75 82.9167 0 72.5 0Z" fill="url(#paint0_linear_8_459)"/>
<path d="M64.5834 31.2503H27.0834C24.5834 31.2503 22.9167 29.5837 22.9167 27.0837C22.9167 24.5837 24.5834 22.917 27.0834 22.917H65C67.5 22.917 69.1667 24.5837 69.1667 27.0837C69.1667 29.5837 67.0834 31.2503 64.5834 31.2503Z" fill="#FBFBFF"/>
<path d="M45.8334 50.0003H27.0834C24.5834 50.0003 22.9167 48.3337 22.9167 45.8337C22.9167 43.3337 24.5834 41.667 27.0834 41.667H45.8334C48.3334 41.667 50 43.3337 50 45.8337C50 48.3337 48.3334 50.0003 45.8334 50.0003Z" fill="#FBFBFF"/>
<defs>
<linearGradient id="paint0_linear_8_459" x1="91.6667" y1="91.6667" x2="-9.99106" y2="78.7731" gradientUnits="userSpaceOnUse">
<stop stop-color="#2D4DF6"/>
<stop offset="1" stop-color="#7759FF"/>
</linearGradient>
</defs>
</svg>
