<svg width="80" height="80" viewBox="0 0 80 80" fill="none" xmlns="http://www.w3.org/2000/svg">
<path d="M62.906 23.9998L49.2308 10.3332C47.1795 7.99984 44.1026 6.6665 41.0256 6.6665H22.2222C17.4359 6.6665 13.3333 10.6665 13.3333 15.6665V64.6665C13.3333 69.3332 17.4359 73.3332 22.2222 73.3332H57.7778C62.5641 73.3332 66.6667 69.3332 66.6667 64.3332V36.3332V32.3332C66.6667 28.9998 65.2991 25.9998 62.906 23.9998Z" fill="url(#paint0_linear_8_514)"/>
<path d="M48.6667 49.3333C47.6667 48 45.3334 47.6667 44.0001 48.6667L42.6667 49.6667V43.3333C42.6667 41.3333 41.3334 40 39.3334 40C37.3334 40 36.0001 41.3333 36.0001 43.3333V49.6667L34.6667 48.6667C33.3334 47.6667 31.0001 47.6667 30.0001 49.3333C29.0001 50.6667 29.0001 53 30.6667 54L37.3334 59.3333L37.6667 59.6667C37.6667 59.6667 38.0001 59.6667 38.0001 60C38.3334 60 38.6667 60 39.3334 60C39.6667 60 40.3334 60 40.6667 59.6667L41.0001 59.3333C41.0001 59.3333 41.0001 59.3333 41.3334 59.3333L48.0001 54C49.3334 52.6667 49.6667 50.6667 48.6667 49.3333Z" fill="white"/>
<defs>
<linearGradient id="paint0_linear_8_514" x1="66.6667" y1="73.3332" x2="7.18132" y2="67.2974" gradientUnits="userSpaceOnUse">
<stop stop-color="#2D4DF6"/>
<stop offset="1" stop-color="#7759FF"/>
</linearGradient>
</defs>
</svg>
