<svg width="180" height="388" viewBox="0 0 180 388" fill="none" xmlns="http://www.w3.org/2000/svg">
<path d="M171.709 180.165L171.708 180.172L171.707 180.179C171.141 185.743 165.936 190.391 160.335 190.391H133.07C124.156 190.391 117.04 197.664 117.04 206.421V373.995C117.04 379.558 112.49 384.024 107.011 384.024H52.9625C47.3987 384.024 42.933 379.474 42.933 373.995V206.542C42.933 197.628 35.6602 190.512 26.9035 190.512H13.0295C7.46578 190.512 3 185.962 3 180.483V139.826C3 134.262 7.55028 129.796 13.0295 129.796H26.9035C35.817 129.796 42.933 122.523 42.933 113.767V86.622C42.933 58.5665 49.4747 37.8315 62.2821 23.995C74.9819 10.2746 96.0613 3 126.555 3H166.85C172.432 3 176.894 7.45372 177 12.9353V53.5657C177 59.1294 172.45 63.5952 166.971 63.5952H146.582C140.256 63.5952 135.035 64.213 131.09 65.2648L131.046 65.2768L131.001 65.2901C126.872 66.5289 123.536 68.6992 121.37 72.1025L121.343 72.1443L121.318 72.1869C119.615 75.0693 118.37 78.0616 117.81 81.2713C117.28 84.1955 117.04 88.3882 117.04 93.378V113.767C117.04 122.68 124.313 129.796 133.07 129.796H167.453C172.77 129.796 176.593 134.026 176.051 139.395C176.051 139.397 176.05 139.399 176.05 139.402L171.709 180.165Z" stroke="#2A49F6" stroke-opacity="0.3" stroke-width="6"/>
</svg>
