<svg width="92" height="84" viewBox="0 0 92 84" fill="none" xmlns="http://www.w3.org/2000/svg">
<path d="M68.1081 1.2948C64.054 -0.77688 59.5946 -0.362544 55.5405 2.53781L51.0811 6.68117C46.2162 10.8245 40.5405 13.3105 34.0541 13.3105H19.4595C14.1892 13.3105 9.32432 15.3822 5.27027 19.5256C2.02703 23.2546 0 28.641 0 34.0273C0 43.9714 6.89189 52.2581 15.8108 54.3298V71.3176C15.8108 77.947 21.0811 83.3333 27.1622 83.3333C33.6486 83.3333 38.5135 77.947 38.5135 71.3176V55.1585C43.3784 55.9872 47.8378 58.0588 51.4865 61.3735L56.3513 65.5169C60 68.0029 64.4595 68.4172 68.5135 66.3456C72.5676 64.2739 75 59.7162 75 55.1585V12.4819C75 7.50984 72.5676 3.36648 68.1081 1.2948Z" fill="url(#paint0_linear_8_472)"/>
<path d="M91.6667 24.9997C91.6667 22.4997 89.5833 20.833 87.5 20.833C85 20.833 83.3333 22.9163 83.3333 24.9997V41.6663C83.3333 44.1663 85.4167 45.833 87.5 45.833C90 45.833 91.6667 43.7497 91.6667 41.6663V24.9997Z" fill="url(#paint1_linear_8_472)"/>
<defs>
<linearGradient id="paint0_linear_8_472" x1="75" y1="83.3333" x2="-8.42545" y2="73.8103" gradientUnits="userSpaceOnUse">
<stop stop-color="#2D4DF6"/>
<stop offset="1" stop-color="#7759FF"/>
</linearGradient>
<linearGradient id="paint1_linear_8_472" x1="91.6667" y1="45.833" x2="82.2932" y2="45.4367" gradientUnits="userSpaceOnUse">
<stop stop-color="#2D4DF6"/>
<stop offset="1" stop-color="#7759FF"/>
</linearGradient>
</defs>
</svg>
